<?xml version="1.0" encoding="utf-8"?>
<!-- Generator: Adobe Illustrator 19.1.0, SVG Export Plug-In . SVG Version: 6.00 Build 0)  -->
<svg version="1.1" id="Layer_1" xmlns="http://www.w3.org/2000/svg" xmlns:xlink="http://www.w3.org/1999/xlink" x="0px" y="0px"
	 viewBox="-412 56 135 40" style="enable-background:new -412 56 135 40;" xml:space="preserve">
<style type="text/css">
	.st0{fill:#FFFFFF;}
	.st1{opacity:0.4;enable-background:new    ;}
	.st2{enable-background:new    ;}
	.st3{font-family:'Lato-Light';}
	.st4{font-size:12px;}
	.st5{font-size:26px;}
</style>
<g id="US_UK_Download_on_the">
	<g>
		<path d="M-278,91.3c0,2.1-1.7,3.8-3.8,3.8h-125.5c-2.1,0-3.8-1.7-3.8-3.8V60.7c0-2.1,1.7-3.8,3.8-3.8h125.5c2.1,0,3.8,1.7,3.8,3.8
			V91.3L-278,91.3z"/>
		<g>
			<g>
				<path class="st0" d="M-381.9,75.8c0-3.2,2.6-4.8,2.8-4.9c-1.5-2.2-3.9-2.5-4.7-2.5c-2-0.2-3.9,1.2-4.9,1.2s-2.6-1.2-4.2-1.1
					c-2.1,0-4.1,1.3-5.2,3.2c-2.3,3.9-0.6,9.7,1.6,12.9c1.1,1.6,2.4,3.3,4,3.2c1.6-0.1,2.2-1,4.2-1c1.9,0,2.5,1,4.2,1
					s2.8-1.6,3.9-3.1c1.3-1.8,1.8-3.5,1.8-3.6C-378.5,80.9-381.8,79.6-381.9,75.8z"/>
				<path class="st0" d="M-385.1,66.3c0.9-1.1,1.5-2.6,1.3-4.1c-1.3,0.1-2.8,0.9-3.8,1.9c-0.8,0.9-1.5,2.5-1.3,3.9
					C-387.4,68.2-386,67.4-385.1,66.3z"/>
			</g>
		</g>
		<g>
			<path class="st0" d="M-358.4,87.5h-2.3l-1.2-3.9h-4.3l-1.2,3.9h-2.2l4.3-13.3h2.6L-358.4,87.5z M-362.2,82l-1.1-3.5
				c-0.1-0.4-0.3-1.2-0.7-2.5l0,0c-0.1,0.6-0.3,1.4-0.6,2.5l-1.1,3.5H-362.2z"/>
			<path class="st0" d="M-347.2,82.6c0,1.6-0.4,2.9-1.3,3.9c-0.8,0.8-1.8,1.3-2.9,1.3c-1.3,0-2.2-0.5-2.7-1.4l0,0v5.1h-2.1V81.1
				c0-1,0-2.1-0.1-3.2h1.9l0.1,1.5l0,0c0.7-1.1,1.8-1.7,3.2-1.7c1.1,0,2.1,0.4,2.8,1.3C-347.7,79.9-347.2,81.1-347.2,82.6z
				 M-349.5,82.7c0-0.9-0.2-1.7-0.6-2.3c-0.5-0.6-1.1-0.9-1.9-0.9c-0.5,0-1,0.2-1.4,0.5c-0.4,0.4-0.7,0.8-0.8,1.4
				c-0.1,0.3-0.1,0.5-0.1,0.7v1.6c0,0.7,0.2,1.3,0.6,1.8s1,0.7,1.7,0.7c0.8,0,1.4-0.3,1.9-0.9C-349.7,84.5-349.5,83.7-349.5,82.7z"
				/>
			<path class="st0" d="M-336.2,82.6c0,1.6-0.4,2.9-1.3,3.9c-0.8,0.8-1.8,1.3-2.9,1.3c-1.3,0-2.2-0.5-2.7-1.4l0,0v5.1h-2.1V81.1
				c0-1,0-2.1-0.1-3.2h1.9l0.1,1.5l0,0c0.7-1.1,1.8-1.7,3.2-1.7c1.1,0,2.1,0.4,2.8,1.3C-336.7,79.9-336.2,81.1-336.2,82.6z
				 M-338.5,82.7c0-0.9-0.2-1.7-0.6-2.3c-0.5-0.6-1.1-0.9-1.9-0.9c-0.5,0-1,0.2-1.4,0.5c-0.4,0.4-0.7,0.8-0.8,1.4
				c-0.1,0.3-0.1,0.5-0.1,0.7v1.6c0,0.7,0.2,1.3,0.6,1.8s1,0.7,1.7,0.7c0.8,0,1.4-0.3,1.9-0.9C-338.7,84.5-338.5,83.7-338.5,82.7z"
				/>
			<path class="st0" d="M-324,83.8c0,1.1-0.4,2.1-1.2,2.8c-0.9,0.8-2.1,1.2-3.6,1.2c-1.4,0-2.6-0.3-3.4-0.8l0.5-1.8
				c0.9,0.6,2,0.8,3.1,0.8c0.8,0,1.4-0.2,1.9-0.5c0.4-0.4,0.7-0.8,0.7-1.5c0-0.5-0.2-1-0.6-1.4s-1-0.7-1.8-1
				c-2.3-0.9-3.5-2.1-3.5-3.8c0-1.1,0.4-2,1.2-2.7c0.8-0.7,1.9-1,3.3-1c1.2,0,2.2,0.2,3,0.6l-0.5,1.7c-0.8-0.4-1.6-0.6-2.5-0.6
				c-0.8,0-1.3,0.2-1.8,0.6c-0.4,0.3-0.5,0.7-0.5,1.2s0.2,1,0.6,1.3s1,0.7,1.9,1c1.1,0.5,2,1,2.5,1.6C-324.2,82.1-324,82.9-324,83.8
				z"/>
			<path class="st0" d="M-316.9,79.5h-2.4v4.7c0,1.2,0.4,1.8,1.2,1.8c0.4,0,0.7,0,0.9-0.1l0.1,1.6c-0.4,0.2-1,0.2-1.7,0.2
				c-0.8,0-1.5-0.3-2-0.8s-0.7-1.4-0.7-2.6v-4.8h-1.4v-1.6h1.4v-1.8l2.1-0.6v2.4h2.4C-316.9,77.9-316.9,79.5-316.9,79.5z"/>
			<path class="st0" d="M-306.2,82.6c0,1.5-0.4,2.7-1.3,3.6c-0.9,1-2.1,1.5-3.5,1.5s-2.5-0.5-3.4-1.4s-1.3-2.1-1.3-3.5
				c0-1.5,0.4-2.7,1.3-3.7c0.9-0.9,2-1.4,3.5-1.4c1.4,0,2.5,0.5,3.4,1.4C-306.7,80-306.2,81.2-306.2,82.6z M-308.5,82.7
				c0-0.9-0.2-1.6-0.6-2.3c-0.4-0.8-1.1-1.1-1.9-1.1c-0.9,0-1.5,0.4-2,1.1c-0.4,0.6-0.6,1.4-0.6,2.3s0.2,1.6,0.6,2.3
				c0.5,0.8,1.1,1.1,1.9,1.1s1.5-0.4,1.9-1.2C-308.7,84.3-308.5,83.6-308.5,82.7z"/>
			<path class="st0" d="M-299.4,79.8c-0.2,0-0.4-0.1-0.7-0.1c-0.8,0-1.3,0.3-1.7,0.9c-0.4,0.5-0.5,1.1-0.5,1.9v5h-2.1v-6.6
				c0-1.1,0-2.1-0.1-3h1.9l0.1,1.8h0.1c0.2-0.6,0.6-1.1,1.1-1.5c0.5-0.3,1-0.5,1.5-0.5c0.2,0,0.4,0,0.5,0
				C-299.4,77.8-299.4,79.8-299.4,79.8z"/>
			<path class="st0" d="M-289.8,82.3c0,0.4,0,0.7-0.1,1h-6.4c0,0.9,0.3,1.7,0.9,2.2c0.5,0.4,1.2,0.7,2.1,0.7s1.8-0.2,2.6-0.5
				l0.3,1.5c-0.9,0.4-2,0.6-3.2,0.6c-1.5,0-2.7-0.4-3.5-1.3s-1.3-2.1-1.3-3.5s0.4-2.7,1.2-3.6c0.8-1,1.9-1.5,3.4-1.5
				c1.4,0,2.4,0.5,3.1,1.5C-290.1,80-289.8,81.1-289.8,82.3z M-291.9,81.7c0-0.6-0.1-1.2-0.4-1.6c-0.4-0.6-0.9-0.9-1.7-0.9
				c-0.7,0-1.3,0.3-1.7,0.9c-0.4,0.5-0.6,1-0.6,1.7L-291.9,81.7L-291.9,81.7z"/>
		</g>
		<g>
			<g>
				<path class="st0" d="M-363,66c0,1.2-0.4,2.1-1.1,2.7c-0.7,0.5-1.6,0.8-2.8,0.8c-0.6,0-1.1,0-1.5-0.1V63c0.6-0.1,1.2-0.1,1.8-0.1
					c1.1,0,2,0.2,2.6,0.7C-363.2,64.2-363,65-363,66z M-364.1,66c0-0.8-0.2-1.3-0.6-1.8c-0.4-0.4-1-0.6-1.8-0.6
					c-0.3,0-0.6,0-0.8,0.1v4.9c0.1,0,0.4,0,0.7,0c0.8,0,1.4-0.2,1.9-0.7S-364.1,66.9-364.1,66z"/>
				<path class="st0" d="M-357.1,67c0,0.7-0.2,1.3-0.6,1.8s-1,0.7-1.7,0.7s-1.2-0.2-1.7-0.7c-0.4-0.5-0.6-1-0.6-1.7s0.2-1.3,0.6-1.8
					s1-0.7,1.7-0.7s1.2,0.2,1.7,0.7C-357.2,65.8-357.1,66.3-357.1,67z M-358.2,67.1c0-0.4-0.1-0.8-0.3-1.1c-0.2-0.4-0.5-0.6-0.9-0.6
					s-0.7,0.2-1,0.6c-0.2,0.3-0.3,0.7-0.3,1.1s0.1,0.8,0.3,1.1c0.2,0.4,0.5,0.6,1,0.6c0.4,0,0.7-0.2,0.9-0.6
					C-358.2,67.9-358.2,67.5-358.2,67.1z"/>
				<path class="st0" d="M-349.2,64.7l-1.5,4.7h-1l-0.6-2c-0.2-0.5-0.3-1-0.4-1.5l0,0c-0.1,0.5-0.2,1-0.4,1.5l-0.6,2h-1l-1.4-4.7
					h1.1l0.5,2.2c0.1,0.5,0.2,1,0.3,1.5l0,0c0.1-0.4,0.2-0.9,0.4-1.5l0.7-2.2h0.9l0.6,2.2c0.2,0.5,0.3,1.1,0.4,1.6l0,0
					c0.1-0.5,0.2-1,0.3-1.6l0.6-2.2H-349.2L-349.2,64.7z"/>
				<path class="st0" d="M-343.8,69.4h-1v-2.7c0-0.8-0.3-1.2-0.9-1.2c-0.3,0-0.6,0.1-0.8,0.3c-0.2,0.2-0.3,0.5-0.3,0.8v2.8h-1V66
					c0-0.4,0-0.9,0-1.3h0.9v0.7l0,0c0.1-0.2,0.3-0.4,0.5-0.6c0.3-0.2,0.6-0.3,0.9-0.3c0.4,0,0.8,0.1,1.1,0.4
					c0.4,0.3,0.5,0.9,0.5,1.6L-343.8,69.4L-343.8,69.4z"/>
				<path class="st0" d="M-340.9,69.4h-1v-6.9h1V69.4z"/>
				<path class="st0" d="M-334.7,67c0,0.7-0.2,1.3-0.6,1.8s-1,0.7-1.7,0.7s-1.2-0.2-1.7-0.7c-0.4-0.5-0.6-1-0.6-1.7s0.2-1.3,0.6-1.8
					s1-0.7,1.7-0.7s1.2,0.2,1.7,0.7C-334.9,65.8-334.7,66.3-334.7,67z M-335.8,67.1c0-0.4-0.1-0.8-0.3-1.1c-0.2-0.4-0.5-0.6-0.9-0.6
					s-0.7,0.2-1,0.6c-0.2,0.3-0.3,0.7-0.3,1.1s0.1,0.8,0.3,1.1c0.2,0.4,0.5,0.6,1,0.6c0.4,0,0.7-0.2,0.9-0.6
					C-335.9,67.9-335.8,67.5-335.8,67.1z"/>
				<path class="st0" d="M-329.7,69.4h-0.9l-0.1-0.5l0,0c-0.3,0.4-0.8,0.7-1.4,0.7c-0.4,0-0.8-0.1-1.1-0.4c-0.2-0.3-0.4-0.6-0.4-1
					c0-0.6,0.2-1,0.7-1.3s1.2-0.5,2-0.4v-0.1c0-0.6-0.3-0.9-1-0.9c-0.5,0-0.9,0.1-1.2,0.3l-0.2-0.7c0.4-0.3,1-0.4,1.6-0.4
					c1.2,0,1.9,0.7,1.9,1.9v1.7C-329.7,68.8-329.7,69.2-329.7,69.4z M-330.8,67.8v-0.7c-1.2,0-1.7,0.3-1.7,0.9
					c0,0.2,0.1,0.4,0.2,0.6c0.1,0.1,0.3,0.2,0.5,0.2s0.4-0.1,0.6-0.2s0.3-0.3,0.4-0.6C-330.8,67.9-330.8,67.9-330.8,67.8z"/>
				<path class="st0" d="M-323.7,69.4h-0.9v-0.8l0,0c-0.3,0.6-0.8,0.9-1.5,0.9c-0.6,0-1-0.2-1.4-0.7s-0.6-1-0.6-1.7
					c0-0.8,0.2-1.4,0.6-1.9c0.4-0.4,0.9-0.7,1.5-0.7s1.1,0.2,1.3,0.6l0,0v-2.7h1V68C-323.8,68.6-323.7,69-323.7,69.4z M-324.8,67.4
					v-0.8c0-0.1,0-0.2,0-0.3c-0.1-0.3-0.2-0.5-0.4-0.6c-0.2-0.2-0.4-0.3-0.7-0.3c-0.4,0-0.7,0.2-0.9,0.5c-0.2,0.3-0.3,0.7-0.3,1.2
					s0.1,0.8,0.3,1.1c0.2,0.3,0.5,0.5,0.9,0.5c0.3,0,0.6-0.1,0.8-0.4C-324.9,68.1-324.8,67.8-324.8,67.4z"/>
				<path class="st0" d="M-314.8,67c0,0.7-0.2,1.3-0.6,1.8s-1,0.7-1.7,0.7s-1.2-0.2-1.7-0.7c-0.4-0.5-0.6-1-0.6-1.7s0.2-1.3,0.6-1.8
					s1-0.7,1.7-0.7s1.2,0.2,1.7,0.7C-315,65.8-314.8,66.3-314.8,67z M-315.8,67.1c0-0.4-0.1-0.8-0.3-1.1c-0.2-0.4-0.5-0.6-0.9-0.6
					s-0.7,0.2-1,0.6c-0.2,0.3-0.3,0.7-0.3,1.1s0.1,0.8,0.3,1.1c0.2,0.4,0.5,0.6,1,0.6c0.4,0,0.7-0.2,0.9-0.6
					C-315.9,67.9-315.8,67.5-315.8,67.1z"/>
				<path class="st0" d="M-309.1,69.4h-1v-2.7c0-0.8-0.3-1.2-1-1.2c-0.3,0-0.6,0.1-0.8,0.3c-0.2,0.2-0.3,0.5-0.3,0.8v2.8h-1V66
					c0-0.4,0-0.9,0-1.3h0.9v0.7l0,0c0.1-0.2,0.3-0.4,0.5-0.6c0.3-0.2,0.6-0.3,1-0.3s0.8,0.1,1.1,0.4c0.4,0.3,0.5,0.9,0.5,1.6
					L-309.1,69.4L-309.1,69.4z"/>
				<path class="st0" d="M-302.1,65.5h-1.2v2.3c0,0.6,0.2,0.9,0.6,0.9c0.2,0,0.3,0,0.5,0v0.8c-0.2,0.1-0.5,0.1-0.8,0.1
					c-0.4,0-0.7-0.1-1-0.4c-0.2-0.3-0.4-0.7-0.4-1.3v-2.4h-0.7v-0.8h0.7v-0.9l1-0.3v1.2h1.2L-302.1,65.5L-302.1,65.5z"/>
				<path class="st0" d="M-296.5,69.4h-1v-2.7c0-0.8-0.3-1.3-0.9-1.3c-0.5,0-0.8,0.2-1,0.7c0,0.1,0,0.2,0,0.4v2.8h-1v-6.9h1v2.8l0,0
					c0.3-0.5,0.8-0.8,1.4-0.8c0.4,0,0.8,0.1,1.1,0.4c0.4,0.4,0.5,0.9,0.5,1.6C-296.5,66.6-296.5,69.4-296.5,69.4z"/>
				<path class="st0" d="M-290.8,66.9c0,0.2,0,0.3,0,0.5h-3.1c0,0.5,0.2,0.8,0.5,1.1c0.3,0.2,0.6,0.3,1,0.3c0.5,0,0.9-0.1,1.3-0.2
					l0.2,0.7c-0.4,0.2-1,0.3-1.6,0.3c-0.7,0-1.3-0.2-1.7-0.6c-0.4-0.4-0.6-1-0.6-1.7s0.2-1.3,0.6-1.8s1-0.8,1.6-0.8
					c0.7,0,1.2,0.3,1.5,0.8C-290.9,65.8-290.8,66.3-290.8,66.9z M-291.8,66.6c0-0.3-0.1-0.6-0.2-0.8c-0.2-0.3-0.5-0.4-0.8-0.4
					s-0.6,0.1-0.8,0.4c-0.2,0.2-0.3,0.5-0.3,0.8C-294,66.6-291.8,66.6-291.8,66.6z"/>
			</g>
		</g>
	</g>
</g>
<path class="st1" d="M-278,91.3c0,2.1-1.7,3.8-3.8,3.8h-125.5c-2.1,0-3.8-1.7-3.8-3.8V60.7c0-2.1,1.7-3.8,3.8-3.8h125.5
	c2.1,0,3.8,1.7,3.8,3.8V91.3L-278,91.3z"/>
<text transform="matrix(0.9764 -0.2159 0.2159 0.9764 -366.7356 73.753)" class="st2"><tspan x="0" y="0" class="st0 st3 st4">Request</tspan><tspan x="0" y="20" class="st0 st3 st5">Beta</tspan></text>
</svg>
