<?xml version="1.0" encoding="utf-8"?>
<!-- Generator: Adobe Illustrator 19.1.0, SVG Export Plug-In . SVG Version: 6.00 Build 0)  -->
<svg version="1.2" baseProfile="tiny" id="Layer_1" xmlns="http://www.w3.org/2000/svg" xmlns:xlink="http://www.w3.org/1999/xlink"
	 x="0px" y="0px" viewBox="0 0 696 696" xml:space="preserve">
<path fill="#2A2E34" d="M310.7,263.4c-3.5-4.2-9.6-4.6-13.5-0.7l-35.6,34.9c-3.9,3.8-3.7,9.9,0.6,13.3l240.1,197.2
	c4.2,3.5,10.1,7.6,12.9,9.2s4,0.8,2.6-1.8c-1.4-2.6-5.4-8.1-8.9-12.4L310.7,263.4z"/>
<g>
	<path fill="#2A2E34" d="M340.4,395.6c-30.1,0-54.6-24.5-54.6-54.6c0-30.1,24.5-54.6,54.6-54.6c30.1,0,54.6,24.5,54.6,54.6
		C395,371.1,370.5,395.6,340.4,395.6z"/>
	<path fill="#FFFFFF" d="M340.4,290.9c27.7,0,50.1,22.4,50.1,50.1c0,27.7-22.4,50.1-50.1,50.1c-27.7,0-50.1-22.4-50.1-50.1
		C290.3,313.3,312.7,290.9,340.4,290.9 M340.4,281.9c-32.6,0-59.1,26.5-59.1,59.1s26.5,59.1,59.1,59.1s59.1-26.5,59.1-59.1
		S373,281.9,340.4,281.9L340.4,281.9z"/>
</g>
<path fill="#2A2E34" d="M99.7,581.2c-133-133-133-348.5,0-481.5c133-133,348.5-133,481.5,0c92,92,120.3,223.4,85,339.8l10.5,4.5
	c3.5,1.5,5.1,5.5,3.7,9l-20.3,48c-1.5,3.5-5.5,5.1-9,3.7l-10.1-4.3c-10.4,19.6-22.9,38.4-37.4,56l28.2,28.2l24.1-24.1l35.1,35.1
	c6.6,6.6,6.6,17.3,0,23.9l-71.3,71.3c-6.8,6.8-17.9,6.8-24.8,0l-34.7-34.7l24.4-24.4l-28.2-28.2c-17.7,14.5-36.5,27-56.1,37.5
	l4.2,10.1c1.5,3.5-0.2,7.5-3.7,9l-48,20.3c-3.5,1.5-7.5-0.2-9-3.7l-4.4-10.5C323.2,701.5,191.7,673.2,99.7,581.2z M612.8,341
	c0-150.5-122-272.4-272.4-272.4S67.9,190.6,67.9,341s122,272.4,272.4,272.4S612.8,491.5,612.8,341z"/>
</svg>
