<?xml version="1.0" encoding="utf-8"?>
<!-- Generator: Adobe Illustrator 19.1.0, SVG Export Plug-In . SVG Version: 6.00 Build 0)  -->
<svg version="1.1" xmlns="http://www.w3.org/2000/svg" xmlns:xlink="http://www.w3.org/1999/xlink" x="0px" y="0px"
	 viewBox="-412 56 135 40" style="enable-background:new -412 56 135 40;" xml:space="preserve">
<style type="text/css">
	.st0{fill:#8669AD;}
	.st1{display:none;}
	.st2{display:inline;}
	.st3{fill:#FFFFFF;}
	.st4{display:inline;fill:#FFFFFF;}
	.st5{font-family:'Lato-Regular';}
	.st6{font-size:10.7975px;}
	.st7{font-size:16.687px;}
	.st8{display:none;fill:#FFFFFF;}
	.st9{font-family:'Lato-Bold';}
	.st10{font-size:28.8405px;}
</style>
<g id="US_UK_Download_on_the">
	<g>
		<path class="st0" d="M-278,91.3c0,2.1-1.7,3.8-3.8,3.8h-125.5c-2.1,0-3.8-1.7-3.8-3.8V60.7c0-2.1,1.7-3.8,3.8-3.8h125.5
			c2.1,0,3.8,1.7,3.8,3.8L-278,91.3L-278,91.3z"/>
		<g class="st1">
			<g class="st2">
				<path class="st3" d="M-381.9,75.8c0-3.2,2.6-4.8,2.8-4.9c-1.5-2.2-3.9-2.5-4.7-2.5c-2-0.2-3.9,1.2-4.9,1.2c-1,0-2.6-1.2-4.2-1.1
					c-2.1,0-4.1,1.3-5.2,3.2c-2.3,3.9-0.6,9.7,1.6,12.9c1.1,1.6,2.4,3.3,4,3.2c1.6-0.1,2.2-1,4.2-1c1.9,0,2.5,1,4.2,1
					c1.7,0,2.8-1.6,3.9-3.1c1.3-1.8,1.8-3.5,1.8-3.6C-378.5,80.9-381.8,79.6-381.9,75.8z"/>
				<path class="st3" d="M-385.1,66.3c0.9-1.1,1.5-2.6,1.3-4.1c-1.3,0.1-2.8,0.9-3.8,1.9c-0.8,0.9-1.5,2.5-1.3,3.9
					C-387.4,68.2-386,67.4-385.1,66.3z"/>
			</g>
		</g>
		<g class="st1">
			<path class="st4" d="M-358.4,87.5h-2.3l-1.2-3.9h-4.3l-1.2,3.9h-2.2l4.3-13.3h2.6L-358.4,87.5z M-362.2,82l-1.1-3.5
				c-0.1-0.4-0.3-1.2-0.7-2.5h0c-0.1,0.6-0.3,1.4-0.6,2.5l-1.1,3.5H-362.2z"/>
			<path class="st4" d="M-347.3,82.6c0,1.6-0.4,2.9-1.3,3.9c-0.8,0.8-1.8,1.3-2.9,1.3c-1.3,0-2.2-0.5-2.7-1.4h0v5.1h-2.1V81.1
				c0-1,0-2.1-0.1-3.2h1.9l0.1,1.5h0c0.7-1.1,1.8-1.7,3.2-1.7c1.1,0,2.1,0.4,2.8,1.3C-347.7,79.9-347.3,81.1-347.3,82.6z
				 M-349.5,82.7c0-0.9-0.2-1.7-0.6-2.3c-0.5-0.6-1.1-0.9-1.9-0.9c-0.5,0-1,0.2-1.4,0.5c-0.4,0.4-0.7,0.8-0.8,1.4
				c-0.1,0.3-0.1,0.5-0.1,0.7v1.6c0,0.7,0.2,1.3,0.6,1.8c0.4,0.5,1,0.7,1.7,0.7c0.8,0,1.4-0.3,1.9-0.9
				C-349.7,84.5-349.5,83.7-349.5,82.7z"/>
			<path class="st4" d="M-336.3,82.6c0,1.6-0.4,2.9-1.3,3.9c-0.8,0.8-1.8,1.3-2.9,1.3c-1.3,0-2.2-0.5-2.7-1.4h0v5.1h-2.1V81.1
				c0-1,0-2.1-0.1-3.2h1.9l0.1,1.5h0c0.7-1.1,1.8-1.7,3.2-1.7c1.1,0,2.1,0.4,2.8,1.3C-336.7,79.9-336.3,81.1-336.3,82.6z
				 M-338.5,82.7c0-0.9-0.2-1.7-0.6-2.3c-0.5-0.6-1.1-0.9-1.9-0.9c-0.5,0-1,0.2-1.4,0.5c-0.4,0.4-0.7,0.8-0.8,1.4
				c-0.1,0.3-0.1,0.5-0.1,0.7v1.6c0,0.7,0.2,1.3,0.6,1.8c0.4,0.5,1,0.7,1.7,0.7c0.8,0,1.4-0.3,1.9-0.9
				C-338.7,84.5-338.5,83.7-338.5,82.7z"/>
			<path class="st4" d="M-324,83.8c0,1.1-0.4,2.1-1.2,2.8c-0.9,0.8-2.1,1.2-3.6,1.2c-1.4,0-2.6-0.3-3.4-0.8l0.5-1.8
				c0.9,0.6,2,0.8,3.1,0.8c0.8,0,1.4-0.2,1.9-0.5c0.4-0.4,0.7-0.8,0.7-1.5c0-0.5-0.2-1-0.6-1.4c-0.4-0.4-1-0.7-1.8-1
				c-2.3-0.9-3.5-2.1-3.5-3.8c0-1.1,0.4-2,1.2-2.7c0.8-0.7,1.9-1,3.3-1c1.2,0,2.2,0.2,3,0.6l-0.5,1.7c-0.8-0.4-1.6-0.6-2.5-0.6
				c-0.8,0-1.3,0.2-1.8,0.6c-0.4,0.3-0.5,0.7-0.5,1.2c0,0.5,0.2,1,0.6,1.3c0.4,0.3,1,0.7,1.9,1c1.1,0.5,2,1,2.5,1.6
				C-324.2,82.1-324,82.9-324,83.8z"/>
			<path class="st4" d="M-316.9,79.5h-2.4v4.7c0,1.2,0.4,1.8,1.2,1.8c0.4,0,0.7,0,0.9-0.1l0.1,1.6c-0.4,0.2-1,0.2-1.7,0.2
				c-0.8,0-1.5-0.3-2-0.8c-0.5-0.5-0.7-1.4-0.7-2.6v-4.8h-1.4v-1.6h1.4v-1.8l2.1-0.6v2.4h2.4C-316.9,77.9-316.9,79.5-316.9,79.5z"/>
			<path class="st4" d="M-306.3,82.6c0,1.5-0.4,2.7-1.3,3.6c-0.9,1-2.1,1.5-3.5,1.5c-1.4,0-2.5-0.5-3.4-1.4s-1.3-2.1-1.3-3.5
				c0-1.5,0.4-2.7,1.3-3.7c0.9-0.9,2-1.4,3.5-1.4c1.4,0,2.5,0.5,3.4,1.4C-306.7,80-306.3,81.2-306.3,82.6z M-308.5,82.7
				c0-0.9-0.2-1.6-0.6-2.3c-0.4-0.8-1.1-1.1-1.9-1.1c-0.9,0-1.5,0.4-2,1.1c-0.4,0.6-0.6,1.4-0.6,2.3c0,0.9,0.2,1.6,0.6,2.3
				c0.5,0.8,1.1,1.1,1.9,1.1c0.8,0,1.5-0.4,1.9-1.2C-308.7,84.3-308.5,83.6-308.5,82.7z"/>
			<path class="st4" d="M-299.4,79.8c-0.2,0-0.4-0.1-0.7-0.1c-0.8,0-1.3,0.3-1.7,0.9c-0.4,0.5-0.5,1.1-0.5,1.9v5h-2.1l0-6.6
				c0-1.1,0-2.1-0.1-3h1.9l0.1,1.8h0.1c0.2-0.6,0.6-1.1,1.1-1.5c0.5-0.3,1-0.5,1.5-0.5c0.2,0,0.4,0,0.5,0
				C-299.4,77.8-299.4,79.8-299.4,79.8z"/>
			<path class="st4" d="M-289.8,82.3c0,0.4,0,0.7-0.1,1h-6.4c0,0.9,0.3,1.7,0.9,2.2c0.5,0.4,1.2,0.7,2.1,0.7c0.9,0,1.8-0.2,2.6-0.5
				l0.3,1.5c-0.9,0.4-2,0.6-3.2,0.6c-1.5,0-2.7-0.4-3.5-1.3c-0.8-0.9-1.3-2.1-1.3-3.5c0-1.4,0.4-2.7,1.2-3.6c0.8-1,1.9-1.5,3.4-1.5
				c1.4,0,2.4,0.5,3.1,1.5C-290.1,80-289.8,81.1-289.8,82.3z M-291.9,81.7c0-0.6-0.1-1.2-0.4-1.6c-0.4-0.6-0.9-0.9-1.7-0.9
				c-0.7,0-1.3,0.3-1.7,0.9c-0.4,0.5-0.6,1-0.6,1.7L-291.9,81.7L-291.9,81.7z"/>
		</g>
		<g class="st1">
			<g class="st2">
				<path class="st3" d="M-363,66c0,1.2-0.4,2.1-1.1,2.7c-0.7,0.5-1.6,0.8-2.8,0.8c-0.6,0-1.1,0-1.5-0.1V63c0.6-0.1,1.2-0.1,1.8-0.1
					c1.1,0,2,0.2,2.6,0.7C-363.3,64.2-363,65-363,66z M-364.1,66c0-0.8-0.2-1.3-0.6-1.8c-0.4-0.4-1-0.6-1.8-0.6
					c-0.3,0-0.6,0-0.8,0.1v4.9c0.1,0,0.4,0,0.7,0c0.8,0,1.4-0.2,1.9-0.7S-364.1,66.9-364.1,66z"/>
				<path class="st3" d="M-357.1,67c0,0.7-0.2,1.3-0.6,1.8c-0.4,0.5-1,0.7-1.7,0.7c-0.7,0-1.2-0.2-1.7-0.7c-0.4-0.5-0.6-1-0.6-1.7
					c0-0.7,0.2-1.3,0.6-1.8s1-0.7,1.7-0.7c0.7,0,1.2,0.2,1.7,0.7C-357.3,65.8-357.1,66.3-357.1,67z M-358.2,67.1
					c0-0.4-0.1-0.8-0.3-1.1c-0.2-0.4-0.5-0.6-0.9-0.6c-0.4,0-0.7,0.2-1,0.6c-0.2,0.3-0.3,0.7-0.3,1.1c0,0.4,0.1,0.8,0.3,1.1
					c0.2,0.4,0.5,0.6,1,0.6c0.4,0,0.7-0.2,0.9-0.6C-358.3,67.9-358.2,67.5-358.2,67.1z"/>
				<path class="st3" d="M-349.2,64.7l-1.5,4.7h-1l-0.6-2c-0.2-0.5-0.3-1-0.4-1.5h0c-0.1,0.5-0.2,1-0.4,1.5l-0.6,2h-1l-1.4-4.7h1.1
					l0.5,2.2c0.1,0.5,0.2,1,0.3,1.5h0c0.1-0.4,0.2-0.9,0.4-1.5l0.7-2.2h0.9l0.6,2.2c0.2,0.5,0.3,1.1,0.4,1.6h0
					c0.1-0.5,0.2-1,0.3-1.6l0.6-2.2L-349.2,64.7L-349.2,64.7z"/>
				<path class="st3" d="M-343.8,69.4h-1v-2.7c0-0.8-0.3-1.2-0.9-1.2c-0.3,0-0.6,0.1-0.8,0.3c-0.2,0.2-0.3,0.5-0.3,0.8v2.8h-1v-3.4
					c0-0.4,0-0.9,0-1.3h0.9l0,0.7h0c0.1-0.2,0.3-0.4,0.5-0.6c0.3-0.2,0.6-0.3,0.9-0.3c0.4,0,0.8,0.1,1.1,0.4
					c0.4,0.3,0.5,0.9,0.5,1.6V69.4z"/>
				<path class="st3" d="M-340.9,69.4h-1v-6.9h1V69.4z"/>
				<path class="st3" d="M-334.7,67c0,0.7-0.2,1.3-0.6,1.8c-0.4,0.5-1,0.7-1.7,0.7c-0.7,0-1.2-0.2-1.7-0.7c-0.4-0.5-0.6-1-0.6-1.7
					c0-0.7,0.2-1.3,0.6-1.8s1-0.7,1.7-0.7c0.7,0,1.2,0.2,1.7,0.7C-334.9,65.8-334.7,66.3-334.7,67z M-335.8,67.1
					c0-0.4-0.1-0.8-0.3-1.1c-0.2-0.4-0.5-0.6-0.9-0.6c-0.4,0-0.7,0.2-1,0.6c-0.2,0.3-0.3,0.7-0.3,1.1c0,0.4,0.1,0.8,0.3,1.1
					c0.2,0.4,0.5,0.6,1,0.6c0.4,0,0.7-0.2,0.9-0.6C-335.9,67.9-335.8,67.5-335.8,67.1z"/>
				<path class="st3" d="M-329.7,69.4h-0.9l-0.1-0.5h0c-0.3,0.4-0.8,0.7-1.4,0.7c-0.4,0-0.8-0.1-1.1-0.4c-0.2-0.3-0.4-0.6-0.4-1
					c0-0.6,0.2-1,0.7-1.3c0.5-0.3,1.2-0.5,2-0.4v-0.1c0-0.6-0.3-0.9-1-0.9c-0.5,0-0.9,0.1-1.2,0.3l-0.2-0.7c0.4-0.3,1-0.4,1.6-0.4
					c1.2,0,1.9,0.7,1.9,1.9v1.7C-329.7,68.8-329.7,69.2-329.7,69.4z M-330.8,67.8v-0.7c-1.2,0-1.7,0.3-1.7,0.9
					c0,0.2,0.1,0.4,0.2,0.6c0.1,0.1,0.3,0.2,0.5,0.2c0.2,0,0.4-0.1,0.6-0.2c0.2-0.1,0.3-0.3,0.4-0.6
					C-330.8,67.9-330.8,67.9-330.8,67.8z"/>
				<path class="st3" d="M-323.7,69.4h-0.9l0-0.8h0c-0.3,0.6-0.8,0.9-1.5,0.9c-0.6,0-1-0.2-1.4-0.7s-0.6-1-0.6-1.7
					c0-0.8,0.2-1.4,0.6-1.9c0.4-0.4,0.9-0.7,1.5-0.7c0.6,0,1.1,0.2,1.3,0.6h0v-2.7h1v5.6C-323.8,68.6-323.7,69-323.7,69.4z
					 M-324.8,67.4v-0.8c0-0.1,0-0.2,0-0.3c-0.1-0.3-0.2-0.5-0.4-0.6c-0.2-0.2-0.4-0.3-0.7-0.3c-0.4,0-0.7,0.2-0.9,0.5
					c-0.2,0.3-0.3,0.7-0.3,1.2c0,0.5,0.1,0.8,0.3,1.1c0.2,0.3,0.5,0.5,0.9,0.5c0.3,0,0.6-0.1,0.8-0.4
					C-324.9,68.1-324.8,67.8-324.8,67.4z"/>
				<path class="st3" d="M-314.8,67c0,0.7-0.2,1.3-0.6,1.8c-0.4,0.5-1,0.7-1.7,0.7c-0.7,0-1.2-0.2-1.7-0.7c-0.4-0.5-0.6-1-0.6-1.7
					c0-0.7,0.2-1.3,0.6-1.8c0.4-0.5,1-0.7,1.7-0.7c0.7,0,1.2,0.2,1.7,0.7C-315,65.8-314.8,66.3-314.8,67z M-315.8,67.1
					c0-0.4-0.1-0.8-0.3-1.1c-0.2-0.4-0.5-0.6-0.9-0.6c-0.4,0-0.7,0.2-1,0.6c-0.2,0.3-0.3,0.7-0.3,1.1c0,0.4,0.1,0.8,0.3,1.1
					c0.2,0.4,0.5,0.6,1,0.6c0.4,0,0.7-0.2,0.9-0.6C-315.9,67.9-315.8,67.5-315.8,67.1z"/>
				<path class="st3" d="M-309.1,69.4h-1v-2.7c0-0.8-0.3-1.2-1-1.2c-0.3,0-0.6,0.1-0.8,0.3c-0.2,0.2-0.3,0.5-0.3,0.8v2.8h-1v-3.4
					c0-0.4,0-0.9,0-1.3h0.9l0,0.7h0c0.1-0.2,0.3-0.4,0.5-0.6c0.3-0.2,0.6-0.3,1-0.3c0.4,0,0.8,0.1,1.1,0.4c0.4,0.3,0.5,0.9,0.5,1.6
					V69.4z"/>
				<path class="st3" d="M-302.1,65.5h-1.2v2.3c0,0.6,0.2,0.9,0.6,0.9c0.2,0,0.3,0,0.5,0l0,0.8c-0.2,0.1-0.5,0.1-0.8,0.1
					c-0.4,0-0.7-0.1-1-0.4c-0.2-0.3-0.4-0.7-0.4-1.3v-2.4h-0.7v-0.8h0.7v-0.9l1-0.3v1.2h1.2L-302.1,65.5L-302.1,65.5z"/>
				<path class="st3" d="M-296.5,69.4h-1v-2.7c0-0.8-0.3-1.3-0.9-1.3c-0.5,0-0.8,0.2-1,0.7c0,0.1,0,0.2,0,0.4v2.8h-1v-6.9h1v2.8h0
					c0.3-0.5,0.8-0.8,1.4-0.8c0.4,0,0.8,0.1,1.1,0.4c0.4,0.4,0.5,0.9,0.5,1.6C-296.5,66.6-296.5,69.4-296.5,69.4z"/>
				<path class="st3" d="M-290.8,66.9c0,0.2,0,0.3,0,0.5h-3.1c0,0.5,0.2,0.8,0.5,1.1c0.3,0.2,0.6,0.3,1,0.3c0.5,0,0.9-0.1,1.3-0.2
					l0.2,0.7c-0.4,0.2-1,0.3-1.6,0.3c-0.7,0-1.3-0.2-1.7-0.6c-0.4-0.4-0.6-1-0.6-1.7c0-0.7,0.2-1.3,0.6-1.8c0.4-0.5,1-0.8,1.6-0.8
					c0.7,0,1.2,0.3,1.5,0.8C-290.9,65.8-290.8,66.3-290.8,66.9z M-291.8,66.6c0-0.3-0.1-0.6-0.2-0.8c-0.2-0.3-0.5-0.4-0.8-0.4
					c-0.3,0-0.6,0.1-0.8,0.4c-0.2,0.2-0.3,0.5-0.3,0.8C-294,66.6-291.8,66.6-291.8,66.6z"/>
			</g>
		</g>
	</g>
</g>
<g id="Layer_2">
	<text transform="matrix(1 0 0 1 -369.2314 70.1597)" class="st3 st5 st6">Request an invite</text>
	<text transform="matrix(1 0 0 1 -369.104 87.5166)" class="st3 st5 st7">to the Beta</text>
	<text transform="matrix(1 0 0 1 -396.439 84.5624)" class="st8 st9 st10">β</text>
	<g>
		<g>
			<path class="st3" d="M-389.2,72.2c-0.1-0.2-0.4-0.2-0.5,0l-1.3,1.3c-0.1,0.1-0.1,0.4,0,0.5l9.1,7.4c0.2,0.1,0.4,0.3,0.5,0.3
				c0.1,0.1,0.2,0,0.1-0.1s-0.2-0.3-0.3-0.5L-389.2,72.2z"/>
		</g>
		<g class="st1">
			<circle class="st2" cx="-388" cy="75.1" r="2.1"/>
			<path class="st4" d="M-388,73.2c1,0,1.9,0.8,1.9,1.9S-387,77-388,77s-1.9-0.8-1.9-1.9S-389.1,73.2-388,73.2 M-388,72.9
				c-1.2,0-2.2,1-2.2,2.2s1,2.2,2.2,2.2s2.2-1,2.2-2.2S-386.8,72.9-388,72.9L-388,72.9z"/>
		</g>
		<path class="st3" d="M-397.1,84.2c-5-5-5-13.2,0-18.2c5-5,13.2-5,18.2,0c3.5,3.5,4.5,8.4,3.2,12.8l0.4,0.2
			c0.1,0.1,0.2,0.2,0.1,0.3l-0.8,1.8c-0.1,0.1-0.2,0.2-0.3,0.1l-0.4-0.2c-0.4,0.7-0.9,1.4-1.4,2.1l1.1,1.1l0.9-0.9l1.3,1.3
			c0.2,0.2,0.2,0.7,0,0.9l-2.7,2.7c-0.3,0.3-0.7,0.3-0.9,0l-1.3-1.3l0.9-0.9l-1.1-1.1c-0.7,0.5-1.4,1-2.1,1.4l0.2,0.4
			c0.1,0.1,0,0.3-0.1,0.3l-1.8,0.8c-0.1,0.1-0.3,0-0.3-0.1l-0.2-0.4C-388.7,88.7-393.6,87.6-397.1,84.2z M-377.7,75.1
			c0-5.7-4.6-10.3-10.3-10.3c-5.7,0-10.3,4.6-10.3,10.3s4.6,10.3,10.3,10.3C-382.3,85.4-377.7,80.8-377.7,75.1z"/>
	</g>
</g>
</svg>
