<?xml version="1.0" encoding="utf-8"?>
<!-- Generator: Adobe Illustrator 18.1.0, SVG Export Plug-In . SVG Version: 6.00 Build 0)  -->
<!DOCTYPE svg PUBLIC "-//W3C//DTD SVG 1.1 Tiny//EN" "http://www.w3.org/Graphics/SVG/1.1/DTD/svg11-tiny.dtd">
<svg version="1.1" baseProfile="tiny" id="Layer_1" xmlns="http://www.w3.org/2000/svg" xmlns:xlink="http://www.w3.org/1999/xlink"
	 x="0px" y="0px" viewBox="0 0 590 140" xml:space="preserve">
<polyline fill="none" stroke="#231F20" stroke-linecap="round" stroke-linejoin="round" stroke-miterlimit="10" points="
	588.6,138.4 588.6,1.6 576.6,1.6 576.6,138.4 568.8,138.4 568.8,26.2 556.8,26.2 556.8,138.4 548.9,138.4 548.9,2.9 536.9,2.9 
	536.9,138.4 529.1,138.4 529.1,131.6 517.1,131.6 517.1,138.4 509.3,138.4 509.3,135 497.3,135 497.3,138.4 489.4,138.4 
	489.4,126.9 477.4,126.9 477.4,138.4 469.6,138.4 469.6,108.9 457.6,108.9 457.6,138.4 449.8,138.4 449.8,131.6 437.8,131.6 
	437.8,138.4 429.9,138.4 429.9,129.6 417.9,129.6 417.9,138.4 410.1,138.4 410.1,134 398.1,134 398.1,138.4 390.3,138.4 
	390.3,136.2 378.3,136.2 378.3,138.4 370.4,138.4 370.4,136.2 358.4,136.2 358.4,138.4 350.6,138.4 350.6,135 338.6,135 
	338.6,138.4 330.8,138.4 330.8,134 318.8,134 318.8,138.4 310.9,138.4 310.9,136.2 298.9,136.2 298.9,138.4 291.1,138.4 
	291.1,136.7 279.1,136.7 279.1,138.4 271.2,138.4 271.2,136.2 259.2,136.2 259.2,138.4 251.4,138.4 251.4,136.2 239.4,136.2 
	239.4,138.4 231.6,138.4 231.6,135.5 219.6,135.5 219.6,138.4 211.7,138.4 211.7,129.6 199.7,129.6 199.7,138.4 191.9,138.4 
	191.9,136.2 179.9,136.2 179.9,138.4 172.1,138.4 172.1,133.3 160.1,133.3 160.1,138.4 152.2,138.4 152.2,130.8 140.2,130.8 
	140.2,138.4 132.4,138.4 132.4,128.2 120.4,128.2 120.4,138.4 112.6,138.4 112.6,129.1 100.6,129.1 100.6,138.4 92.7,138.4 
	92.7,130.3 80.7,130.3 80.7,138.4 72.9,138.4 72.9,132.6 60.9,132.6 60.9,138.4 53.1,138.4 53.1,118.9 41.1,118.9 41.1,138.4 
	33.2,138.4 33.2,104.2 21.2,104.2 21.2,138.4 13.4,138.4 13.4,2.9 1.4,2.9 1.4,138.4 "/>
</svg>
